# Blender v2.81 (sub 16) OBJ File: ''
# www.blender.org
mtllib window.mtl
o Plane_Plane.002
v 0.100000 -0.100000 -0.000000
v -0.100000 -0.100000 0.000000
v 0.100000 0.100000 -0.000000
v -0.100000 0.100000 0.000000
vt 0.000000 0.000000
vt 1.000000 0.000000
vt 1.000000 1.000000
vt 0.000000 1.000000
vn -0.0000 -0.0000 -1.0000
usemtl None
s off
f 1/1/1 2/2/1 4/3/1 3/4/1
o Plane.001_Plane.003
v -0.100000 -0.100000 -0.000000
v 0.100000 -0.100000 -0.000000
v -0.100000 0.100000 0.000000
v 0.100000 0.100000 0.000000
vt 0.000000 0.000000
vt 1.000000 0.000000
vt 1.000000 1.000000
vt 0.000000 1.000000
vn 0.0000 -0.0000 1.0000
usemtl None
s off
f 5/5/2 6/6/2 8/7/2 7/8/2
